<?xml version="1.0" standalone="no"?>
<!DOCTYPE svg PUBLIC "-//W3C//DTD SVG 20010904//EN"
 "http://www.w3.org/TR/2001/REC-SVG-20010904/DTD/svg10.dtd">
<svg version="1.0" xmlns="http://www.w3.org/2000/svg"
 width="400.000000pt" height="400.000000pt" viewBox="0 0 400.000000 400.000000"
 preserveAspectRatio="xMidYMid meet">
<metadata>
Created by potrace 1.14, written by Peter Selinger 2001-2017
</metadata>
<g transform="translate(0.000000,400.000000) scale(0.100000,-0.100000)"
fill="#000000" stroke="none">
<path d="M1035 3953 c-226 -132 -432 -316 -591 -527 -62 -83 -89 -121 -89
-126 0 -3 -17 -31 -38 -63 -20 -31 -37 -59 -37 -61 0 -2 -16 -32 -34 -65 -19
-34 -33 -61 -30 -61 3 0 -4 -17 -14 -37 -35 -66 -69 -155 -100 -258 -27 -90
-39 -140 -72 -310 -34 -170 -34 -555 0 -710 4 -22 11 -62 15 -89 3 -27 10 -56
14 -65 5 -9 11 -32 14 -51 3 -19 12 -54 21 -78 8 -23 15 -46 16 -50 3 -49 169
-421 192 -430 4 -2 8 -8 8 -13 0 -9 106 -177 119 -189 3 -3 24 -27 46 -55 68
-86 87 -107 179 -197 111 -109 238 -207 381 -292 103 -62 306 -156 337 -156 8
0 18 -4 24 -9 5 -4 37 -16 72 -25 35 -10 73 -20 85 -24 12 -3 208 -8 434 -9
l413 -4 97 27 c54 14 104 31 112 38 8 6 16 9 18 7 8 -7 136 44 226 91 88 45
98 51 147 83 25 16 48 29 52 30 18 1 253 195 324 267 156 159 294 350 380 523
8 17 18 37 23 45 8 14 19 38 56 123 23 53 57 149 59 167 1 9 5 20 8 26 9 13
54 198 62 249 7 45 19 111 23 130 13 49 11 483 -1 565 -26 162 -34 207 -46
245 -5 17 -11 41 -14 55 -4 26 -32 120 -46 155 -4 11 -18 47 -30 80 -135 359
-381 683 -710 938 -26 21 -102 69 -178 114 l-73 43 -887 0 -887 0 -80 -47z"/>
</g>
</svg>
